# xmcd CD database file
#
# Track frame offsets:
#	150
#	17049
#	28280
#	41196
#	53239
#	63920
#	74424
#	88161
#	99345
#	106978
#	121285
#	131257
#	145057
#	159894
#	187113
#	201450
#	218899
#	232795
#	256579
#	272185
#	289458
#	304927
#	326370
#	347650
#
# Disc length: 4773 seconds
#
# Revision: 0
# Processed by: cddbd v1.5.2PL0 Copyright (c) Steve Scherf et al.
# Submitted via: CDex 1.79
#
DISCID=6612a318
DTITLE=Dorothy Donegan - At the Embers and Live
DYEAR=1900
DGENRE=Jazz
TTITLE0=That Old Black Magic
TTITLE1=Over The Rainbow
TTITLE2=Sweet Georgia Brown
TTITLE3=My Funny Valentine
TTITLE4=This Can't Be Love
TTITLE5=DDT
TTITLE6=Just In Time
TTITLE7=September Song
TTITLE8=Donegan Walk
TTITLE9=Humoresque
TTITLE10=Autumn Leaves
TTITLE11=Lullaby Of Birdland
TTITLE12=After You've Gone
TTITLE13=Body And Soul
TTITLE14=Put Your Arms Around Me, Honey
TTITLE15=It's All Right With Me
TTITLE16=Little White Lies
TTITLE17=How High The Moon
TTITLE18=Caravan
TTITLE19=It Had To Be You
TTITLE20=Louise
TTITLE21=Lullaby Of The Leaves
TTITLE22=Someday Sweetheart
TTITLE23=Fine And Dandy
EXTD=
EXTT0=
EXTT1=
EXTT2=
EXTT3=
EXTT4=
EXTT5=
EXTT6=
EXTT7=
EXTT8=
EXTT9=
EXTT10=
EXTT11=
EXTT12=
EXTT13=
EXTT14=
EXTT15=
EXTT16=
EXTT17=
EXTT18=
EXTT19=
EXTT20=
EXTT21=
EXTT22=
EXTT23=
PLAYORDER=
